<?xml version="1.0" encoding="UTF-8" standalone="no"?>
<!DOCTYPE svg PUBLIC "-//W3C//DTD SVG 1.1//EN"
 "http://www.w3.org/Graphics/SVG/1.1/DTD/svg11.dtd">
<!-- Generated by graphviz version 2.47.3 (20210619.1520)
 -->
<!-- Pages: 1 -->
<svg width="859pt" height="404pt"
 viewBox="0.00 0.00 859.23 404.00" xmlns="http://www.w3.org/2000/svg" xmlns:xlink="http://www.w3.org/1999/xlink">
<g id="graph0" class="graph" transform="scale(1 1) rotate(0) translate(4 400)">
<polygon fill="white" stroke="transparent" points="-4,4 -4,-400 855.23,-400 855.23,4 -4,4"/>
<!-- [root] google_compute_firewall.terraform_fw_http (expand) -->
<g id="node1" class="node">
<title>[root] google_compute_firewall.terraform_fw_http (expand)</title>
<polygon fill="none" stroke="black" points="260,-252 0,-252 0,-216 260,-216 260,-252"/>
<text text-anchor="middle" x="130" y="-230.3" font-family="Times,serif" font-size="14.00">google_compute_firewall.terraform_fw_http</text>
</g>
<!-- [root] google_compute_network.terraform_network (expand) -->
<g id="node4" class="node">
<title>[root] google_compute_network.terraform_network (expand)</title>
<polygon fill="none" stroke="black" points="538.5,-108 273.5,-108 273.5,-72 538.5,-72 538.5,-108"/>
<text text-anchor="middle" x="406" y="-86.3" font-family="Times,serif" font-size="14.00">google_compute_network.terraform_network</text>
</g>
<!-- [root] google_compute_firewall.terraform_fw_http (expand)&#45;&gt;[root] google_compute_network.terraform_network (expand) -->
<g id="edge1" class="edge">
<title>[root] google_compute_firewall.terraform_fw_http (expand)&#45;&gt;[root] google_compute_network.terraform_network (expand)</title>
<path fill="none" stroke="black" d="M163.29,-215.87C213.44,-190.07 308.34,-141.25 363.44,-112.9"/>
<polygon fill="black" stroke="black" points="365.3,-115.88 372.59,-108.19 362.1,-109.65 365.3,-115.88"/>
</g>
<!-- [root] google_compute_firewall.terraform_fw_ssh (expand) -->
<g id="node2" class="node">
<title>[root] google_compute_firewall.terraform_fw_ssh (expand)</title>
<polygon fill="none" stroke="black" points="534,-252 278,-252 278,-216 534,-216 534,-252"/>
<text text-anchor="middle" x="406" y="-230.3" font-family="Times,serif" font-size="14.00">google_compute_firewall.terraform_fw_ssh</text>
</g>
<!-- [root] google_compute_firewall.terraform_fw_ssh (expand)&#45;&gt;[root] google_compute_network.terraform_network (expand) -->
<g id="edge2" class="edge">
<title>[root] google_compute_firewall.terraform_fw_ssh (expand)&#45;&gt;[root] google_compute_network.terraform_network (expand)</title>
<path fill="none" stroke="black" d="M406,-215.87C406,-191.67 406,-147.21 406,-118.39"/>
<polygon fill="black" stroke="black" points="409.5,-118.19 406,-108.19 402.5,-118.19 409.5,-118.19"/>
</g>
<!-- [root] google_compute_instance.vm_instance (expand) -->
<g id="node3" class="node">
<title>[root] google_compute_instance.vm_instance (expand)</title>
<polygon fill="none" stroke="black" points="783.5,-252 552.5,-252 552.5,-216 783.5,-216 783.5,-252"/>
<text text-anchor="middle" x="668" y="-230.3" font-family="Times,serif" font-size="14.00">google_compute_instance.vm_instance</text>
</g>
<!-- [root] google_compute_subnetwork.terraform_subnet_a (expand) -->
<g id="node5" class="node">
<title>[root] google_compute_subnetwork.terraform_subnet_a (expand)</title>
<polygon fill="none" stroke="black" points="766.5,-180 479.5,-180 479.5,-144 766.5,-144 766.5,-180"/>
<text text-anchor="middle" x="623" y="-158.3" font-family="Times,serif" font-size="14.00">google_compute_subnetwork.terraform_subnet_a</text>
</g>
<!-- [root] google_compute_instance.vm_instance (expand)&#45;&gt;[root] google_compute_subnetwork.terraform_subnet_a (expand) -->
<g id="edge3" class="edge">
<title>[root] google_compute_instance.vm_instance (expand)&#45;&gt;[root] google_compute_subnetwork.terraform_subnet_a (expand)</title>
<path fill="none" stroke="black" d="M656.88,-215.7C651.64,-207.56 645.3,-197.69 639.52,-188.7"/>
<polygon fill="black" stroke="black" points="642.35,-186.62 634,-180.1 636.46,-190.41 642.35,-186.62"/>
</g>
<!-- [root] provider[&quot;registry.terraform.io/hashicorp/google&quot;] -->
<g id="node6" class="node">
<title>[root] provider[&quot;registry.terraform.io/hashicorp/google&quot;]</title>
<polygon fill="none" stroke="black" points="406,-36 139.39,-18 406,0 672.61,-18 406,-36"/>
<text text-anchor="middle" x="406" y="-14.3" font-family="Times,serif" font-size="14.00">provider[&quot;registry.terraform.io/hashicorp/google&quot;]</text>
</g>
<!-- [root] google_compute_network.terraform_network (expand)&#45;&gt;[root] provider[&quot;registry.terraform.io/hashicorp/google&quot;] -->
<g id="edge4" class="edge">
<title>[root] google_compute_network.terraform_network (expand)&#45;&gt;[root] provider[&quot;registry.terraform.io/hashicorp/google&quot;]</title>
<path fill="none" stroke="black" d="M406,-71.7C406,-63.98 406,-54.71 406,-46.11"/>
<polygon fill="black" stroke="black" points="409.5,-46.1 406,-36.1 402.5,-46.1 409.5,-46.1"/>
</g>
<!-- [root] google_compute_subnetwork.terraform_subnet_a (expand)&#45;&gt;[root] google_compute_network.terraform_network (expand) -->
<g id="edge5" class="edge">
<title>[root] google_compute_subnetwork.terraform_subnet_a (expand)&#45;&gt;[root] google_compute_network.terraform_network (expand)</title>
<path fill="none" stroke="black" d="M570.19,-143.97C539.61,-134.1 500.93,-121.62 468.79,-111.25"/>
<polygon fill="black" stroke="black" points="469.64,-107.85 459.04,-108.11 467.49,-114.51 469.64,-107.85"/>
</g>
<!-- [root] meta.count&#45;boundary (EachMode fixup) -->
<g id="node7" class="node">
<title>[root] meta.count&#45;boundary (EachMode fixup)</title>
<ellipse fill="none" stroke="black" cx="183" cy="-306" rx="176.27" ry="18"/>
<text text-anchor="middle" x="183" y="-302.3" font-family="Times,serif" font-size="14.00">[root] meta.count&#45;boundary (EachMode fixup)</text>
</g>
<!-- [root] meta.count&#45;boundary (EachMode fixup)&#45;&gt;[root] google_compute_firewall.terraform_fw_http (expand) -->
<g id="edge6" class="edge">
<title>[root] meta.count&#45;boundary (EachMode fixup)&#45;&gt;[root] google_compute_firewall.terraform_fw_http (expand)</title>
<path fill="none" stroke="black" d="M169.9,-287.7C163.61,-279.39 155.95,-269.28 149.04,-260.14"/>
<polygon fill="black" stroke="black" points="151.78,-257.96 142.95,-252.1 146.2,-262.19 151.78,-257.96"/>
</g>
<!-- [root] meta.count&#45;boundary (EachMode fixup)&#45;&gt;[root] google_compute_firewall.terraform_fw_ssh (expand) -->
<g id="edge7" class="edge">
<title>[root] meta.count&#45;boundary (EachMode fixup)&#45;&gt;[root] google_compute_firewall.terraform_fw_ssh (expand)</title>
<path fill="none" stroke="black" d="M234.72,-288.76C266.69,-278.73 307.97,-265.77 341.99,-255.09"/>
<polygon fill="black" stroke="black" points="343.35,-258.34 351.84,-252 341.25,-251.66 343.35,-258.34"/>
</g>
<!-- [root] meta.count&#45;boundary (EachMode fixup)&#45;&gt;[root] google_compute_instance.vm_instance (expand) -->
<g id="edge8" class="edge">
<title>[root] meta.count&#45;boundary (EachMode fixup)&#45;&gt;[root] google_compute_instance.vm_instance (expand)</title>
<path fill="none" stroke="black" d="M280.27,-290.96C355.45,-280.11 460.12,-265 541.75,-253.22"/>
<polygon fill="black" stroke="black" points="542.7,-256.62 552.1,-251.73 541.7,-249.69 542.7,-256.62"/>
</g>
<!-- [root] provider[&quot;registry.terraform.io/hashicorp/google&quot;] (close) -->
<g id="node8" class="node">
<title>[root] provider[&quot;registry.terraform.io/hashicorp/google&quot;] (close)</title>
<ellipse fill="none" stroke="black" cx="614" cy="-306" rx="237.46" ry="18"/>
<text text-anchor="middle" x="614" y="-302.3" font-family="Times,serif" font-size="14.00">[root] provider[&quot;registry.terraform.io/hashicorp/google&quot;] (close)</text>
</g>
<!-- [root] provider[&quot;registry.terraform.io/hashicorp/google&quot;] (close)&#45;&gt;[root] google_compute_firewall.terraform_fw_http (expand) -->
<g id="edge9" class="edge">
<title>[root] provider[&quot;registry.terraform.io/hashicorp/google&quot;] (close)&#45;&gt;[root] google_compute_firewall.terraform_fw_http (expand)</title>
<path fill="none" stroke="black" d="M508.98,-289.81C435.13,-279.13 335.89,-264.78 257.49,-253.44"/>
<polygon fill="black" stroke="black" points="257.95,-249.97 247.55,-252 256.95,-256.9 257.95,-249.97"/>
</g>
<!-- [root] provider[&quot;registry.terraform.io/hashicorp/google&quot;] (close)&#45;&gt;[root] google_compute_firewall.terraform_fw_ssh (expand) -->
<g id="edge10" class="edge">
<title>[root] provider[&quot;registry.terraform.io/hashicorp/google&quot;] (close)&#45;&gt;[root] google_compute_firewall.terraform_fw_ssh (expand)</title>
<path fill="none" stroke="black" d="M564.44,-288.32C535.06,-278.43 497.6,-265.83 466.48,-255.36"/>
<polygon fill="black" stroke="black" points="467.22,-251.91 456.62,-252.04 464.98,-258.54 467.22,-251.91"/>
</g>
<!-- [root] provider[&quot;registry.terraform.io/hashicorp/google&quot;] (close)&#45;&gt;[root] google_compute_instance.vm_instance (expand) -->
<g id="edge11" class="edge">
<title>[root] provider[&quot;registry.terraform.io/hashicorp/google&quot;] (close)&#45;&gt;[root] google_compute_instance.vm_instance (expand)</title>
<path fill="none" stroke="black" d="M627.35,-287.7C633.76,-279.39 641.56,-269.28 648.61,-260.14"/>
<polygon fill="black" stroke="black" points="651.47,-262.16 654.81,-252.1 645.93,-257.88 651.47,-262.16"/>
</g>
<!-- [root] root -->
<g id="node9" class="node">
<title>[root] root</title>
<ellipse fill="none" stroke="black" cx="398" cy="-378" rx="47.39" ry="18"/>
<text text-anchor="middle" x="398" y="-374.3" font-family="Times,serif" font-size="14.00">[root] root</text>
</g>
<!-- [root] root&#45;&gt;[root] meta.count&#45;boundary (EachMode fixup) -->
<g id="edge12" class="edge">
<title>[root] root&#45;&gt;[root] meta.count&#45;boundary (EachMode fixup)</title>
<path fill="none" stroke="black" d="M362.98,-365.6C330.51,-355.03 281.53,-339.08 242.86,-326.49"/>
<polygon fill="black" stroke="black" points="243.86,-323.13 233.26,-323.36 241.69,-329.79 243.86,-323.13"/>
</g>
<!-- [root] root&#45;&gt;[root] provider[&quot;registry.terraform.io/hashicorp/google&quot;] (close) -->
<g id="edge13" class="edge">
<title>[root] root&#45;&gt;[root] provider[&quot;registry.terraform.io/hashicorp/google&quot;] (close)</title>
<path fill="none" stroke="black" d="M433.18,-365.6C465.58,-355.1 514.35,-339.29 553.08,-326.74"/>
<polygon fill="black" stroke="black" points="554.26,-330.04 562.69,-323.63 552.1,-323.38 554.26,-330.04"/>
</g>
</g>
</svg>
